<?xml version="1.0" encoding="utf-8"?>
<COLLADA xmlns="http://www.collada.org/2005/11/COLLADASchema" version="1.4.1" xmlns:xsi="http://www.w3.org/2001/XMLSchema-instance">
  <asset>
    <contributor>
      <author>Blender User</author>
      <authoring_tool>Blender 4.2.18 LTS commit date:2026-02-16, commit time:13:37, hash:d71e3422e438</authoring_tool>
    </contributor>
    <created>2026-03-31T17:56:40</created>
    <modified>2026-03-31T17:56:40</modified>
    <unit name="meter" meter="1"/>
    <up_axis>Z_UP</up_axis>
  </asset>
  <library_effects>
    <effect id="Material_009-effect">
      <profile_COMMON>
        <technique sid="common">
          <lambert>
            <emission>
              <color sid="emission">0 0 0 1</color>
            </emission>
            <diffuse>
              <color sid="diffuse">0.2527106 0.2527106 0.2527106 1</color>
            </diffuse>
            <index_of_refraction>
              <float sid="ior">1.5</float>
            </index_of_refraction>
          </lambert>
        </technique>
      </profile_COMMON>
    </effect>
  </library_effects>
  <library_images/>
  <library_materials>
    <material id="Material_009-material" name="Material.009">
      <instance_effect url="#Material_009-effect"/>
    </material>
  </library_materials>
  <library_geometries>
    <geometry id="Cylinder_001-mesh" name="Cylinder.001">
      <mesh>
        <source id="Cylinder_001-mesh-positions">
          <float_array id="Cylinder_001-mesh-positions-array" count="384">1.39057e-7 1 -0.6290605 1.39057e-7 1 1.370939 0.1950904 0.9807853 -0.6290605 0.1950904 0.9807853 1.370939 0.3826836 0.9238795 -0.6290605 0.3826836 0.9238795 1.370939 0.5555704 0.8314696 -0.6290605 0.5555704 0.8314696 1.370939 0.7071069 0.7071068 -0.6290605 0.7071069 0.7071068 1.370939 0.8314697 0.5555703 -0.6290605 0.8314697 0.5555703 1.370939 0.9238796 0.3826835 -0.6290605 0.9238796 0.3826835 1.370939 0.9807854 0.1950903 -0.6290605 0.9807854 0.1950903 1.370939 1 0 -0.6290605 1 0 1.370939 0.9807854 -0.1950903 -0.6290605 0.9807854 -0.1950903 1.370939 0.9238796 -0.3826835 -0.6290605 0.9238796 -0.3826835 1.370939 0.8314697 -0.5555703 -0.6290605 0.8314697 -0.5555703 1.370939 0.7071069 -0.7071068 -0.6290605 0.7071069 -0.7071068 1.370939 0.5555704 -0.8314696 -0.6290605 0.5555704 -0.8314696 1.370939 0.3826836 -0.9238795 -0.6290605 0.3826836 -0.9238795 1.370939 0.1950904 -0.9807853 -0.6290605 0.1950904 -0.9807853 1.370939 1.39057e-7 -1 -0.6290605 1.39057e-7 -1 1.370939 -0.1950902 -0.9807853 -0.6290605 -0.1950902 -0.9807853 1.370939 -0.3826833 -0.9238795 -0.6290605 -0.3826833 -0.9238795 1.370939 -0.5555701 -0.8314696 -0.6290605 -0.5555701 -0.8314696 1.370939 -0.7071067 -0.7071068 -0.6290605 -0.7071067 -0.7071068 1.370939 -0.8314695 -0.5555703 -0.6290605 -0.8314695 -0.5555703 1.370939 -0.9238794 -0.3826835 -0.6290605 -0.9238794 -0.3826835 1.370939 -0.9807851 -0.1950903 -0.6290605 -0.9807851 -0.1950903 1.370939 -0.9999999 0 -0.6290605 -0.9999999 0 1.370939 -0.9807851 0.1950903 -0.6290605 -0.9807851 0.1950903 1.370939 -0.9238794 0.3826835 -0.6290605 -0.9238794 0.3826835 1.370939 -0.8314695 0.5555703 -0.6290605 -0.8314695 0.5555703 1.370939 -0.7071067 0.7071068 -0.6290605 -0.7071067 0.7071068 1.370939 -0.5555701 0.8314696 -0.6290605 -0.5555701 0.8314696 1.370939 -0.3826833 0.9238795 -0.6290605 -0.3826833 0.9238795 1.370939 -0.1950902 0.9807853 -0.6290605 -0.1950902 0.9807853 1.370939 -3.3778e-7 1.875 -0.8814409 -3.3778e-7 1.875 -0.5957267 0.365794 1.838972 -0.8814409 0.365794 1.838972 -0.5957267 0.717531 1.732274 -0.8814409 0.717531 1.732274 -0.5957267 1.041694 1.559005 -0.8814409 1.041694 1.559005 -0.5957267 1.325825 1.325825 -0.8814409 1.325825 1.325825 -0.5957267 1.559005 1.041694 -0.8814409 1.559005 1.041694 -0.5957267 1.732273 0.7175313 -0.8814409 1.732273 0.7175313 -0.5957267 1.838972 0.3657943 -0.8814409 1.838972 0.3657943 -0.5957267 1.874999 0 -0.8814409 1.874999 0 -0.5957267 1.838972 -0.3657943 -0.8814409 1.838972 -0.3657943 -0.5957267 1.732273 -0.7175313 -0.8814409 1.732273 -0.7175313 -0.5957267 1.559005 -1.041694 -0.8814409 1.559005 -1.041694 -0.5957267 1.325825 -1.325825 -0.8814409 1.325825 -1.325825 -0.5957267 1.041694 -1.559005 -0.8814409 1.041694 -1.559005 -0.5957267 0.717531 -1.732274 -0.8814409 0.717531 -1.732274 -0.5957267 0.365794 -1.838972 -0.8814409 0.365794 -1.838972 -0.5957267 -3.3778e-7 -1.875 -0.8814409 -3.3778e-7 -1.875 -0.5957267 -0.3657946 -1.838972 -0.8814409 -0.3657946 -1.838972 -0.5957267 -0.7175317 -1.732274 -0.8814409 -0.7175317 -1.732274 -0.5957267 -1.041694 -1.559005 -0.8814409 -1.041694 -1.559005 -0.5957267 -1.325825 -1.325825 -0.8814409 -1.325825 -1.325825 -0.5957267 -1.559005 -1.041694 -0.8814409 -1.559005 -1.041694 -0.5957267 -1.732274 -0.7175313 -0.8814409 -1.732274 -0.7175313 -0.5957267 -1.838972 -0.3657943 -0.8814409 -1.838972 -0.3657943 -0.5957267 -1.875 0 -0.8814409 -1.875 0 -0.5957267 -1.838972 0.3657943 -0.8814409 -1.838972 0.3657943 -0.5957267 -1.732274 0.7175313 -0.8814409 -1.732274 0.7175313 -0.5957267 -1.559005 1.041694 -0.8814409 -1.559005 1.041694 -0.5957267 -1.325825 1.325825 -0.8814409 -1.325825 1.325825 -0.5957267 -1.041694 1.559005 -0.8814409 -1.041694 1.559005 -0.5957267 -0.7175317 1.732274 -0.8814409 -0.7175317 1.732274 -0.5957267 -0.3657946 1.838972 -0.8814409 -0.3657946 1.838972 -0.5957267</float_array>
          <technique_common>
            <accessor source="#Cylinder_001-mesh-positions-array" count="128" stride="3">
              <param name="X" type="float"/>
              <param name="Y" type="float"/>
              <param name="Z" type="float"/>
            </accessor>
          </technique_common>
        </source>
        <source id="Cylinder_001-mesh-normals">
          <float_array id="Cylinder_001-mesh-normals-array" count="744">0.09801727 0.9951847 0 0.2902846 0.9569404 0 0.4713968 0.8819212 0 0.6343933 0.7730104 0 0.7730104 0.6343933 0 0.8819213 0.4713967 0 0.9569404 0.2902846 0 0.9951847 0.09801727 0 0.9951847 -0.09801727 0 0.9569404 -0.2902846 0 0.8819213 -0.4713967 0 0.7730104 -0.6343933 0 0.6343933 -0.7730104 0 0.4713968 -0.8819212 0 0.2902846 -0.9569404 0 0.09801727 -0.9951847 0 -0.09801727 -0.9951847 0 -0.2902846 -0.9569404 0 -0.4713967 -0.8819214 0 -0.6343933 -0.7730104 0 -0.7730104 -0.6343933 0 -0.8819213 -0.4713967 0 -0.9569404 -0.2902846 0 -0.9951847 -0.09801727 0 -0.9951847 0.09801727 0 -0.9569404 0.2902846 0 -0.8819213 0.4713967 0 -0.7730104 0.6343933 0 -0.6343933 0.7730104 0 -0.4713967 0.8819214 0 0 0 1 -0.2902846 0.9569404 0 -0.09801727 0.9951847 0 0 0 -1 0.09801733 0.9951847 0 0.2902848 0.9569403 0 0.4713967 0.8819213 0 0.6343932 0.7730105 0 0.7730105 0.6343932 0 0.8819213 0.4713967 0 0.9569403 0.2902847 0 0.9951847 0.09801733 0 0.9951847 -0.09801733 0 0.9569403 -0.2902847 0 0.8819213 -0.4713967 0 0.7730105 -0.6343932 0 0.6343932 -0.7730105 0 0.4713967 -0.8819213 0 0.2902848 -0.9569403 0 0.09801733 -0.9951847 0 -0.09801733 -0.9951847 0 -0.2902847 -0.9569403 0 -0.4713967 -0.8819213 0 -0.6343932 -0.7730105 0 -0.7730105 -0.6343932 0 -0.8819213 -0.4713967 0 -0.9569403 -0.2902847 0 -0.9951847 -0.09801733 0 -0.9951847 0.09801733 0 -0.9569403 0.2902847 0 -0.8819213 0.4713967 0 -0.7730105 0.6343932 0 -0.6343932 0.7730105 0 -0.4713967 0.8819213 0 0 0 1 -0.2902847 0.9569403 0 -0.09801733 0.9951847 0 0 0 -1 0.09801727 0.9951847 0 0.2902846 0.9569404 0 0.4713968 0.8819212 0 0.6343933 0.7730104 0 0.7730104 0.6343933 0 0.8819213 0.4713967 0 0.9569404 0.2902846 0 0.9951847 0.09801727 0 0.9951847 -0.09801727 0 0.9569404 -0.2902846 0 0.8819213 -0.4713967 0 0.7730104 -0.6343933 0 0.6343933 -0.7730104 0 0.4713968 -0.8819212 0 0.2902846 -0.9569404 0 0.09801727 -0.9951847 0 -0.09801727 -0.9951847 0 -0.2902846 -0.9569404 0 -0.4713967 -0.8819214 0 -0.6343933 -0.7730104 0 -0.7730104 -0.6343933 0 -0.8819213 -0.4713967 0 -0.9569404 -0.2902846 0 -0.9951847 -0.09801727 0 -0.9951847 0.09801727 0 -0.9569404 0.2902846 0 -0.8819213 0.4713967 0 -0.7730104 0.6343933 0 -0.6343933 0.7730104 0 -0.4713967 0.8819214 0 0 0 1 0 0 1 0 0 1 0 0 1 0 0 1 0 0 1 0 0 1 0 0 1 0 0 1 0 0 1 0 0 1 0 0 1 0 0 1 0 0 1 0 0 1 0 0 1 0 0 1 0 0 1 0 0 1 0 0 1 0 0 1 0 0 1 0 0 1 0 0 1 0 0 1 0 0 1 0 0 1 0 0 1 0 0 1 -0.2902846 0.9569404 0 -0.09801727 0.9951847 0 0 0 -1 0 0 -1 0 0 -1 0 0 -1 0 0 -1 0 0 -1 0 0 -1 0 0 -1 0 0 -1 0 0 -1 0 0 -1 0 0 -1 0 0 -1 0 0 -1 0 0 -1 0 0 -1 0 0 -1 0 0 -1 0 0 -1 0 0 -1 0 0 -1 0 0 -1 0 0 -1 0 0 -1 0 0 -1 0 0 -1 0 0 -1 0 0 -1 0 0 -1 0.09801733 0.9951847 0 0.2902848 0.9569403 0 0.4713967 0.8819213 0 0.6343932 0.7730105 0 0.7730105 0.6343932 0 0.8819213 0.4713967 0 0.9569403 0.2902847 0 0.9951847 0.09801733 0 0.9951847 -0.09801733 0 0.9569403 -0.2902847 0 0.8819213 -0.4713967 0 0.7730105 -0.6343932 0 0.6343932 -0.7730105 0 0.4713967 -0.8819213 0 0.2902848 -0.9569403 0 0.09801733 -0.9951847 0 -0.09801733 -0.9951847 0 -0.2902847 -0.9569403 0 -0.4713967 -0.8819213 0 -0.6343932 -0.7730105 0 -0.7730105 -0.6343932 0 -0.8819213 -0.4713967 0 -0.9569403 -0.2902847 0 -0.9951847 -0.09801733 0 -0.9951847 0.09801733 0 -0.9569403 0.2902847 0 -0.8819213 0.4713967 0 -0.7730105 0.6343932 0 -0.6343932 0.7730105 0 -0.4713967 0.8819213 0 0 0 1 0 0 1 0 0 1 0 0 1 0 0 1 0 0 1 0 0 1 0 0 1 0 0 1 0 0 1 0 0 1 0 0 1 0 0 1 0 0 1 0 0 1 0 0 1 0 0 1 0 0 1 0 0 1 0 0 1 0 0 1 0 0 1 0 0 1 0 0 1 0 0 1 0 0 1 0 0 1 0 0 1 0 0 1 -0.2902847 0.9569403 0 -0.09801733 0.9951847 0 0 0 -1 0 0 -1 0 0 -1 0 0 -1 0 0 -1 0 0 -1 0 0 -1 0 0 -1 0 0 -1 0 0 -1 0 0 -1 0 0 -1 0 0 -1 0 0 -1 0 0 -1 0 0 -1 0 0 -1 0 0 -1 0 0 -1 0 0 -1 0 0 -1 0 0 -1 0 0 -1 0 0 -1 0 0 -1 0 0 -1 0 0 -1 0 0 -1 0 0 -1</float_array>
          <technique_common>
            <accessor source="#Cylinder_001-mesh-normals-array" count="248" stride="3">
              <param name="X" type="float"/>
              <param name="Y" type="float"/>
              <param name="Z" type="float"/>
            </accessor>
          </technique_common>
        </source>
        <source id="Cylinder_001-mesh-map-0">
          <float_array id="Cylinder_001-mesh-map-0-array" count="1488">1 1 0.96875 0.5 1 0.5 0.96875 1 0.9375 0.5 0.96875 0.5 0.9375 1 0.90625 0.5 0.9375 0.5 0.90625 1 0.875 0.5 0.90625 0.5 0.875 1 0.84375 0.5 0.875 0.5 0.84375 1 0.8125 0.5 0.84375 0.5 0.8125 1 0.78125 0.5 0.8125 0.5 0.78125 1 0.75 0.5 0.78125 0.5 0.75 1 0.71875 0.5 0.75 0.5 0.71875 1 0.6875 0.5 0.71875 0.5 0.6875 1 0.65625 0.5 0.6875 0.5 0.65625 1 0.625 0.5 0.65625 0.5 0.625 1 0.59375 0.5 0.625 0.5 0.59375 1 0.5625 0.5 0.59375 0.5 0.5625 1 0.53125 0.5 0.5625 0.5 0.53125 1 0.5 0.5 0.53125 0.5 0.5 1 0.46875 0.5 0.5 0.5 0.46875 1 0.4375 0.5 0.46875 0.5 0.4375 1 0.40625 0.5 0.4375 0.5 0.40625 1 0.375 0.5 0.40625 0.5 0.375 1 0.34375 0.5 0.375 0.5 0.34375 1 0.3125 0.5 0.34375 0.5 0.3125 1 0.28125 0.5 0.3125 0.5 0.28125 1 0.25 0.5 0.28125 0.5 0.25 1 0.21875 0.5 0.25 0.5 0.21875 1 0.1875 0.5 0.21875 0.5 0.1875 1 0.15625 0.5 0.1875 0.5 0.15625 1 0.125 0.5 0.15625 0.5 0.125 1 0.09375 0.5 0.125 0.5 0.09375 1 0.0625 0.5 0.09375 0.5 0.1581559 0.02826887 0.4717311 0.1581559 0.341844 0.4717311 0.0625 1 0.03125 0.5 0.0625 0.5 0.03125 1 0 0.5 0.03125 0.5 0.7968217 0.01461154 0.5146116 0.2031783 0.7031784 0.4853885 1 1 0.96875 0.5 1 0.5 0.96875 1 0.9375 0.5 0.96875 0.5 0.9375 1 0.90625 0.5 0.9375 0.5 0.90625 1 0.875 0.5 0.90625 0.5 0.875 1 0.84375 0.5 0.875 0.5 0.84375 1 0.8125 0.5 0.84375 0.5 0.8125 1 0.78125 0.5 0.8125 0.5 0.78125 1 0.75 0.5 0.78125 0.5 0.75 1 0.71875 0.5 0.75 0.5 0.71875 1 0.6875 0.5 0.71875 0.5 0.6875 1 0.65625 0.5 0.6875 0.5 0.65625 1 0.625 0.5 0.65625 0.5 0.625 1 0.59375 0.5 0.625 0.5 0.59375 1 0.5625 0.5 0.59375 0.5 0.5625 1 0.53125 0.5 0.5625 0.5 0.53125 1 0.5 0.5 0.53125 0.5 0.5 1 0.46875 0.5 0.5 0.5 0.46875 1 0.4375 0.5 0.46875 0.5 0.4375 1 0.40625 0.5 0.4375 0.5 0.40625 1 0.375 0.5 0.40625 0.5 0.375 1 0.34375 0.5 0.375 0.5 0.34375 1 0.3125 0.5 0.34375 0.5 0.3125 1 0.28125 0.5 0.3125 0.5 0.28125 1 0.25 0.5 0.28125 0.5 0.25 1 0.21875 0.5 0.25 0.5 0.21875 1 0.1875 0.5 0.21875 0.5 0.1875 1 0.15625 0.5 0.1875 0.5 0.15625 1 0.125 0.5 0.15625 0.5 0.125 1 0.09375 0.5 0.125 0.5 0.09375 1 0.0625 0.5 0.09375 0.5 0.1581559 0.02826887 0.4717311 0.1581559 0.341844 0.4717311 0.0625 1 0.03125 0.5 0.0625 0.5 0.03125 1 0 0.5 0.03125 0.5 0.7968217 0.01461154 0.5146116 0.2031783 0.7031784 0.4853885 1 1 0.96875 1 0.96875 0.5 0.96875 1 0.9375 1 0.9375 0.5 0.9375 1 0.90625 1 0.90625 0.5 0.90625 1 0.875 1 0.875 0.5 0.875 1 0.84375 1 0.84375 0.5 0.84375 1 0.8125 1 0.8125 0.5 0.8125 1 0.78125 1 0.78125 0.5 0.78125 1 0.75 1 0.75 0.5 0.75 1 0.71875 1 0.71875 0.5 0.71875 1 0.6875 1 0.6875 0.5 0.6875 1 0.65625 1 0.65625 0.5 0.65625 1 0.625 1 0.625 0.5 0.625 1 0.59375 1 0.59375 0.5 0.59375 1 0.5625 1 0.5625 0.5 0.5625 1 0.53125 1 0.53125 0.5 0.53125 1 0.5 1 0.5 0.5 0.5 1 0.46875 1 0.46875 0.5 0.46875 1 0.4375 1 0.4375 0.5 0.4375 1 0.40625 1 0.40625 0.5 0.40625 1 0.375 1 0.375 0.5 0.375 1 0.34375 1 0.34375 0.5 0.34375 1 0.3125 1 0.3125 0.5 0.3125 1 0.28125 1 0.28125 0.5 0.28125 1 0.25 1 0.25 0.5 0.25 1 0.21875 1 0.21875 0.5 0.21875 1 0.1875 1 0.1875 0.5 0.1875 1 0.15625 1 0.15625 0.5 0.15625 1 0.125 1 0.125 0.5 0.125 1 0.09375 1 0.09375 0.5 0.09375 1 0.0625 1 0.0625 0.5 0.341844 0.4717311 0.2968217 0.4853885 0.1581559 0.4717311 0.2968217 0.4853885 0.25 0.49 0.1581559 0.4717311 0.25 0.49 0.2031783 0.4853885 0.1581559 0.4717311 0.1581559 0.4717311 0.1166631 0.4495527 0.08029437 0.4197056 0.08029437 0.4197056 0.05044728 0.3833369 0.02826887 0.341844 0.02826887 0.341844 0.01461154 0.2968217 0.00999999 0.25 0.00999999 0.25 0.01461154 0.2031783 0.02826887 0.1581559 0.02826887 0.1581559 0.05044728 0.1166631 0.1581559 0.02826887 0.05044728 0.1166631 0.08029437 0.08029437 0.1581559 0.02826887 0.08029437 0.08029437 0.1166631 0.05044728 0.1581559 0.02826887 0.1581559 0.02826887 0.2031783 0.01461154 0.341844 0.02826887 0.2031783 0.01461154 0.25 0.00999999 0.341844 0.02826887 0.25 0.00999999 0.2968217 0.01461154 0.341844 0.02826887 0.341844 0.02826887 0.3833369 0.05044728 0.4197056 0.08029437 0.4197056 0.08029437 0.4495527 0.1166631 0.4717311 0.1581559 0.4717311 0.1581559 0.4853885 0.2031783 0.49 0.25 0.49 0.25 0.4853885 0.2968217 0.4717311 0.1581559 0.4853885 0.2968217 0.4717311 0.341844 0.4717311 0.1581559 0.4717311 0.341844 0.4495527 0.3833369 0.4197056 0.4197056 0.4197056 0.4197056 0.3833369 0.4495527 0.341844 0.4717311 0.1581559 0.4717311 0.08029437 0.4197056 0.02826887 0.341844 0.02826887 0.341844 0.00999999 0.25 0.1581559 0.02826887 0.00999999 0.25 0.02826887 0.1581559 0.1581559 0.02826887 0.341844 0.02826887 0.4197056 0.08029437 0.1581559 0.02826887 0.4197056 0.08029437 0.4717311 0.1581559 0.1581559 0.02826887 0.4717311 0.341844 0.4197056 0.4197056 0.4717311 0.1581559 0.4197056 0.4197056 0.341844 0.4717311 0.4717311 0.1581559 0.341844 0.4717311 0.1581559 0.4717311 0.1581559 0.02826887 0.1581559 0.4717311 0.02826887 0.341844 0.1581559 0.02826887 0.0625 1 0.03125 1 0.03125 0.5 0.03125 1 0 1 0 0.5 0.7031784 0.4853885 0.75 0.49 0.7968217 0.4853885 0.7968217 0.4853885 0.841844 0.4717311 0.8833369 0.4495527 0.8833369 0.4495527 0.9197056 0.4197056 0.9495527 0.3833369 0.9495527 0.3833369 0.9717311 0.341844 0.9853885 0.2968217 0.9853885 0.2968217 0.99 0.25 0.9853885 0.2031783 0.9853885 0.2031783 0.9717311 0.1581559 0.9495527 0.1166631 0.9495527 0.1166631 0.9197056 0.08029437 0.8833369 0.05044728 0.8833369 0.05044728 0.841844 0.02826887 0.7968217 0.01461154 0.7968217 0.01461154 0.75 0.00999999 0.7031784 0.01461154 0.7031784 0.01461154 0.658156 0.02826887 0.6166632 0.05044728 0.6166632 0.05044728 0.5802944 0.08029437 0.5504473 0.1166631 0.5504473 0.1166631 0.5282689 0.1581559 0.5146116 0.2031783 0.5146116 0.2031783 0.51 0.25 0.5146116 0.2968217 0.5146116 0.2968217 0.5282689 0.341844 0.5504473 0.3833369 0.5504473 0.3833369 0.5802944 0.4197056 0.6166632 0.4495527 0.6166632 0.4495527 0.658156 0.4717311 0.7031784 0.4853885 0.7031784 0.4853885 0.7968217 0.4853885 0.8833369 0.4495527 0.8833369 0.4495527 0.9495527 0.3833369 0.9853885 0.2968217 0.9853885 0.2968217 0.9853885 0.2031783 0.7968217 0.01461154 0.9853885 0.2031783 0.9495527 0.1166631 0.7968217 0.01461154 0.9495527 0.1166631 0.8833369 0.05044728 0.7968217 0.01461154 0.7968217 0.01461154 0.7031784 0.01461154 0.6166632 0.05044728 0.6166632 0.05044728 0.5504473 0.1166631 0.5146116 0.2031783 0.5146116 0.2031783 0.5146116 0.2968217 0.5504473 0.3833369 0.5504473 0.3833369 0.6166632 0.4495527 0.7031784 0.4853885 0.7031784 0.4853885 0.8833369 0.4495527 0.9853885 0.2968217 0.7968217 0.01461154 0.6166632 0.05044728 0.5146116 0.2031783 0.5146116 0.2031783 0.5504473 0.3833369 0.7031784 0.4853885 0.7031784 0.4853885 0.9853885 0.2968217 0.7968217 0.01461154 1 1 0.96875 1 0.96875 0.5 0.96875 1 0.9375 1 0.9375 0.5 0.9375 1 0.90625 1 0.90625 0.5 0.90625 1 0.875 1 0.875 0.5 0.875 1 0.84375 1 0.84375 0.5 0.84375 1 0.8125 1 0.8125 0.5 0.8125 1 0.78125 1 0.78125 0.5 0.78125 1 0.75 1 0.75 0.5 0.75 1 0.71875 1 0.71875 0.5 0.71875 1 0.6875 1 0.6875 0.5 0.6875 1 0.65625 1 0.65625 0.5 0.65625 1 0.625 1 0.625 0.5 0.625 1 0.59375 1 0.59375 0.5 0.59375 1 0.5625 1 0.5625 0.5 0.5625 1 0.53125 1 0.53125 0.5 0.53125 1 0.5 1 0.5 0.5 0.5 1 0.46875 1 0.46875 0.5 0.46875 1 0.4375 1 0.4375 0.5 0.4375 1 0.40625 1 0.40625 0.5 0.40625 1 0.375 1 0.375 0.5 0.375 1 0.34375 1 0.34375 0.5 0.34375 1 0.3125 1 0.3125 0.5 0.3125 1 0.28125 1 0.28125 0.5 0.28125 1 0.25 1 0.25 0.5 0.25 1 0.21875 1 0.21875 0.5 0.21875 1 0.1875 1 0.1875 0.5 0.1875 1 0.15625 1 0.15625 0.5 0.15625 1 0.125 1 0.125 0.5 0.125 1 0.09375 1 0.09375 0.5 0.09375 1 0.0625 1 0.0625 0.5 0.341844 0.4717311 0.2968217 0.4853885 0.25 0.49 0.25 0.49 0.2031783 0.4853885 0.341844 0.4717311 0.2031783 0.4853885 0.1581559 0.4717311 0.341844 0.4717311 0.1581559 0.4717311 0.1166631 0.4495527 0.08029437 0.4197056 0.08029437 0.4197056 0.05044728 0.3833369 0.02826887 0.341844 0.02826887 0.341844 0.01461154 0.2968217 0.00999999 0.25 0.00999999 0.25 0.01461154 0.2031783 0.02826887 0.341844 0.01461154 0.2031783 0.02826887 0.1581559 0.02826887 0.341844 0.02826887 0.1581559 0.05044728 0.1166631 0.08029437 0.08029437 0.08029437 0.08029437 0.1166631 0.05044728 0.1581559 0.02826887 0.1581559 0.02826887 0.2031783 0.01461154 0.341844 0.02826887 0.2031783 0.01461154 0.25 0.00999999 0.341844 0.02826887 0.25 0.00999999 0.2968217 0.01461154 0.341844 0.02826887 0.341844 0.02826887 0.3833369 0.05044728 0.4197056 0.08029437 0.4197056 0.08029437 0.4495527 0.1166631 0.4717311 0.1581559 0.4717311 0.1581559 0.4853885 0.2031783 0.4717311 0.341844 0.4853885 0.2031783 0.49 0.25 0.4717311 0.341844 0.49 0.25 0.4853885 0.2968217 0.4717311 0.341844 0.4717311 0.341844 0.4495527 0.3833369 0.4197056 0.4197056 0.4197056 0.4197056 0.3833369 0.4495527 0.341844 0.4717311 0.1581559 0.4717311 0.08029437 0.4197056 0.02826887 0.341844 0.02826887 0.1581559 0.08029437 0.08029437 0.1581559 0.02826887 0.341844 0.02826887 0.4197056 0.08029437 0.4717311 0.1581559 0.4717311 0.341844 0.4197056 0.4197056 0.341844 0.4717311 0.341844 0.4717311 0.1581559 0.4717311 0.02826887 0.341844 0.02826887 0.341844 0.02826887 0.1581559 0.1581559 0.02826887 0.1581559 0.02826887 0.341844 0.02826887 0.4717311 0.1581559 0.4717311 0.1581559 0.4717311 0.341844 0.341844 0.4717311 0.341844 0.4717311 0.02826887 0.341844 0.1581559 0.02826887 0.0625 1 0.03125 1 0.03125 0.5 0.03125 1 0 1 0 0.5 0.7031784 0.4853885 0.75 0.49 0.7968217 0.4853885 0.7968217 0.4853885 0.841844 0.4717311 0.8833369 0.4495527 0.8833369 0.4495527 0.9197056 0.4197056 0.9495527 0.3833369 0.9495527 0.3833369 0.9717311 0.341844 0.9853885 0.2968217 0.9853885 0.2968217 0.99 0.25 0.9853885 0.2031783 0.9853885 0.2031783 0.9717311 0.1581559 0.9495527 0.1166631 0.9495527 0.1166631 0.9197056 0.08029437 0.8833369 0.05044728 0.8833369 0.05044728 0.841844 0.02826887 0.7968217 0.01461154 0.7968217 0.01461154 0.75 0.00999999 0.7031784 0.01461154 0.7031784 0.01461154 0.658156 0.02826887 0.6166632 0.05044728 0.6166632 0.05044728 0.5802944 0.08029437 0.5504473 0.1166631 0.5504473 0.1166631 0.5282689 0.1581559 0.5146116 0.2031783 0.5146116 0.2031783 0.51 0.25 0.5146116 0.2968217 0.5146116 0.2968217 0.5282689 0.341844 0.5504473 0.3833369 0.5504473 0.3833369 0.5802944 0.4197056 0.6166632 0.4495527 0.6166632 0.4495527 0.658156 0.4717311 0.7031784 0.4853885 0.7031784 0.4853885 0.7968217 0.4853885 0.9853885 0.2968217 0.7968217 0.4853885 0.8833369 0.4495527 0.9853885 0.2968217 0.8833369 0.4495527 0.9495527 0.3833369 0.9853885 0.2968217 0.9853885 0.2968217 0.9853885 0.2031783 0.9495527 0.1166631 0.9495527 0.1166631 0.8833369 0.05044728 0.9853885 0.2968217 0.8833369 0.05044728 0.7968217 0.01461154 0.9853885 0.2968217 0.7968217 0.01461154 0.7031784 0.01461154 0.6166632 0.05044728 0.6166632 0.05044728 0.5504473 0.1166631 0.7968217 0.01461154 0.5504473 0.1166631 0.5146116 0.2031783 0.7968217 0.01461154 0.5146116 0.2031783 0.5146116 0.2968217 0.5504473 0.3833369 0.5504473 0.3833369 0.6166632 0.4495527 0.5146116 0.2031783 0.6166632 0.4495527 0.7031784 0.4853885 0.5146116 0.2031783 0.7031784 0.4853885 0.9853885 0.2968217 0.7968217 0.01461154</float_array>
          <technique_common>
            <accessor source="#Cylinder_001-mesh-map-0-array" count="744" stride="2">
              <param name="S" type="float"/>
              <param name="T" type="float"/>
            </accessor>
          </technique_common>
        </source>
        <vertices id="Cylinder_001-mesh-vertices">
          <input semantic="POSITION" source="#Cylinder_001-mesh-positions"/>
        </vertices>
        <triangles material="Material_009-material" count="248">
          <input semantic="VERTEX" source="#Cylinder_001-mesh-vertices" offset="0"/>
          <input semantic="NORMAL" source="#Cylinder_001-mesh-normals" offset="1"/>
          <input semantic="TEXCOORD" source="#Cylinder_001-mesh-map-0" offset="2" set="0"/>
          <p>1 0 0 2 0 1 0 0 2 3 1 3 4 1 4 2 1 5 5 2 6 6 2 7 4 2 8 7 3 9 8 3 10 6 3 11 9 4 12 10 4 13 8 4 14 11 5 15 12 5 16 10 5 17 13 6 18 14 6 19 12 6 20 15 7 21 16 7 22 14 7 23 17 8 24 18 8 25 16 8 26 19 9 27 20 9 28 18 9 29 21 10 30 22 10 31 20 10 32 23 11 33 24 11 34 22 11 35 25 12 36 26 12 37 24 12 38 27 13 39 28 13 40 26 13 41 29 14 42 30 14 43 28 14 44 31 15 45 32 15 46 30 15 47 33 16 48 34 16 49 32 16 50 35 17 51 36 17 52 34 17 53 37 18 54 38 18 55 36 18 56 39 19 57 40 19 58 38 19 59 41 20 60 42 20 61 40 20 62 43 21 63 44 21 64 42 21 65 45 22 66 46 22 67 44 22 68 47 23 69 48 23 70 46 23 71 49 24 72 50 24 73 48 24 74 51 25 75 52 25 76 50 25 77 53 26 78 54 26 79 52 26 80 55 27 81 56 27 82 54 27 83 57 28 84 58 28 85 56 28 86 59 29 87 60 29 88 58 29 89 37 30 90 21 30 91 5 30 92 61 31 93 62 31 94 60 31 95 63 32 96 0 32 97 62 32 98 30 33 99 46 33 100 62 33 101 65 34 102 66 34 103 64 34 104 67 35 105 68 35 106 66 35 107 69 36 108 70 36 109 68 36 110 71 37 111 72 37 112 70 37 113 73 38 114 74 38 115 72 38 116 75 39 117 76 39 118 74 39 119 77 40 120 78 40 121 76 40 122 79 41 123 80 41 124 78 41 125 81 42 126 82 42 127 80 42 128 83 43 129 84 43 130 82 43 131 85 44 132 86 44 133 84 44 134 87 45 135 88 45 136 86 45 137 89 46 138 90 46 139 88 46 140 91 47 141 92 47 142 90 47 143 93 48 144 94 48 145 92 48 146 95 49 147 96 49 148 94 49 149 97 50 150 98 50 151 96 50 152 99 51 153 100 51 154 98 51 155 101 52 156 102 52 157 100 52 158 103 53 159 104 53 160 102 53 161 105 54 162 106 54 163 104 54 164 107 55 165 108 55 166 106 55 167 109 56 168 110 56 169 108 56 170 111 57 171 112 57 172 110 57 173 113 58 174 114 58 175 112 58 176 115 59 177 116 59 178 114 59 179 117 60 180 118 60 181 116 60 182 119 61 183 120 61 184 118 61 185 121 62 186 122 62 187 120 62 188 123 63 189 124 63 190 122 63 191 101 64 192 85 64 193 69 64 194 125 65 195 126 65 196 124 65 197 127 66 198 64 66 199 126 66 200 94 67 201 110 67 202 126 67 203 1 68 204 3 68 205 2 68 206 3 69 207 5 69 208 4 69 209 5 70 210 7 70 211 6 70 212 7 71 213 9 71 214 8 71 215 9 72 216 11 72 217 10 72 218 11 73 219 13 73 220 12 73 221 13 74 222 15 74 223 14 74 224 15 75 225 17 75 226 16 75 227 17 76 228 19 76 229 18 76 230 19 77 231 21 77 232 20 77 233 21 78 234 23 78 235 22 78 236 23 79 237 25 79 238 24 79 239 25 80 240 27 80 241 26 80 242 27 81 243 29 81 244 28 81 245 29 82 246 31 82 247 30 82 248 31 83 249 33 83 250 32 83 251 33 84 252 35 84 253 34 84 254 35 85 255 37 85 256 36 85 257 37 86 258 39 86 259 38 86 260 39 87 261 41 87 262 40 87 263 41 88 264 43 88 265 42 88 266 43 89 267 45 89 268 44 89 269 45 90 270 47 90 271 46 90 272 47 91 273 49 91 274 48 91 275 49 92 276 51 92 277 50 92 278 51 93 279 53 93 280 52 93 281 53 94 282 55 94 283 54 94 284 55 95 285 57 95 286 56 95 287 57 96 288 59 96 289 58 96 290 59 97 291 61 97 292 60 97 293 5 98 294 3 98 295 61 98 296 3 99 297 1 99 298 61 99 299 1 100 300 63 100 301 61 100 302 61 101 303 59 101 304 57 101 305 57 102 306 55 102 307 53 102 308 53 103 309 51 103 310 49 103 311 49 104 312 47 104 313 45 104 314 45 105 315 43 105 316 37 105 317 43 106 318 41 106 319 37 106 320 41 107 321 39 107 322 37 107 323 37 108 324 35 108 325 29 108 326 35 109 327 33 109 328 29 109 329 33 110 330 31 110 331 29 110 332 29 111 333 27 111 334 25 111 335 25 112 336 23 112 337 21 112 338 21 113 339 19 113 340 17 113 341 17 114 342 15 114 343 21 114 344 15 115 345 13 115 346 21 115 347 13 116 348 11 116 349 9 116 350 9 117 351 7 117 352 5 117 353 61 118 354 57 118 355 53 118 356 53 119 357 49 119 358 37 119 359 49 120 360 45 120 361 37 120 362 29 121 363 25 121 364 37 121 365 25 122 366 21 122 367 37 122 368 13 123 369 9 123 370 21 123 371 9 124 372 5 124 373 21 124 374 5 125 375 61 125 376 37 125 377 61 126 378 53 126 379 37 126 380 61 127 381 63 127 382 62 127 383 63 128 384 1 128 385 0 128 386 62 129 387 0 129 388 2 129 389 2 130 390 4 130 391 6 130 392 6 131 393 8 131 394 10 131 395 10 132 396 12 132 397 14 132 398 14 133 399 16 133 400 18 133 401 18 134 402 20 134 403 22 134 404 22 135 405 24 135 406 26 135 407 26 136 408 28 136 409 30 136 410 30 137 411 32 137 412 34 137 413 34 138 414 36 138 415 38 138 416 38 139 417 40 139 418 42 139 419 42 140 420 44 140 421 46 140 422 46 141 423 48 141 424 50 141 425 50 142 426 52 142 427 54 142 428 54 143 429 56 143 430 58 143 431 58 144 432 60 144 433 62 144 434 62 145 435 2 145 436 6 145 437 6 146 438 10 146 439 14 146 440 14 147 441 18 147 442 30 147 443 18 148 444 22 148 445 30 148 446 22 149 447 26 149 448 30 149 449 30 150 450 34 150 451 38 150 452 38 151 453 42 151 454 46 151 455 46 152 456 50 152 457 54 152 458 54 153 459 58 153 460 62 153 461 62 154 462 6 154 463 14 154 464 30 155 465 38 155 466 46 155 467 46 156 468 54 156 469 62 156 470 62 157 471 14 157 472 30 157 473 65 158 474 67 158 475 66 158 476 67 159 477 69 159 478 68 159 479 69 160 480 71 160 481 70 160 482 71 161 483 73 161 484 72 161 485 73 162 486 75 162 487 74 162 488 75 163 489 77 163 490 76 163 491 77 164 492 79 164 493 78 164 494 79 165 495 81 165 496 80 165 497 81 166 498 83 166 499 82 166 500 83 167 501 85 167 502 84 167 503 85 168 504 87 168 505 86 168 506 87 169 507 89 169 508 88 169 509 89 170 510 91 170 511 90 170 512 91 171 513 93 171 514 92 171 515 93 172 516 95 172 517 94 172 518 95 173 519 97 173 520 96 173 521 97 174 522 99 174 523 98 174 524 99 175 525 101 175 526 100 175 527 101 176 528 103 176 529 102 176 530 103 177 531 105 177 532 104 177 533 105 178 534 107 178 535 106 178 536 107 179 537 109 179 538 108 179 539 109 180 540 111 180 541 110 180 542 111 181 543 113 181 544 112 181 545 113 182 546 115 182 547 114 182 548 115 183 549 117 183 550 116 183 551 117 184 552 119 184 553 118 184 554 119 185 555 121 185 556 120 185 557 121 186 558 123 186 559 122 186 560 123 187 561 125 187 562 124 187 563 69 188 564 67 188 565 65 188 566 65 189 567 127 189 568 69 189 569 127 190 570 125 190 571 69 190 572 125 191 573 123 191 574 121 191 575 121 192 576 119 192 577 117 192 578 117 193 579 115 193 580 113 193 581 113 194 582 111 194 583 117 194 584 111 195 585 109 195 586 117 195 587 109 196 588 107 196 589 105 196 590 105 197 591 103 197 592 101 197 593 101 198 594 99 198 595 93 198 596 99 199 597 97 199 598 93 199 599 97 200 600 95 200 601 93 200 602 93 201 603 91 201 604 89 201 605 89 202 606 87 202 607 85 202 608 85 203 609 83 203 610 77 203 611 83 204 612 81 204 613 77 204 614 81 205 615 79 205 616 77 205 617 77 206 618 75 206 619 73 206 620 73 207 621 71 207 622 69 207 623 125 208 624 121 208 625 117 208 626 109 209 627 105 209 628 101 209 629 93 210 630 89 210 631 85 210 632 77 211 633 73 211 634 69 211 635 69 212 636 125 212 637 117 212 638 117 213 639 109 213 640 101 213 641 101 214 642 93 214 643 85 214 644 85 215 645 77 215 646 69 215 647 69 216 648 117 216 649 101 216 650 125 217 651 127 217 652 126 217 653 127 218 654 65 218 655 64 218 656 126 219 657 64 219 658 66 219 659 66 220 660 68 220 661 70 220 662 70 221 663 72 221 664 74 221 665 74 222 666 76 222 667 78 222 668 78 223 669 80 223 670 82 223 671 82 224 672 84 224 673 86 224 674 86 225 675 88 225 676 90 225 677 90 226 678 92 226 679 94 226 680 94 227 681 96 227 682 98 227 683 98 228 684 100 228 685 102 228 686 102 229 687 104 229 688 106 229 689 106 230 690 108 230 691 110 230 692 110 231 693 112 231 694 114 231 695 114 232 696 116 232 697 118 232 698 118 233 699 120 233 700 122 233 701 122 234 702 124 234 703 126 234 704 126 235 705 66 235 706 78 235 707 66 236 708 70 236 709 78 236 710 70 237 711 74 237 712 78 237 713 78 238 714 82 238 715 86 238 716 86 239 717 90 239 718 78 239 719 90 240 720 94 240 721 78 240 722 94 241 723 98 241 724 102 241 725 102 242 726 106 242 727 94 242 728 106 243 729 110 243 730 94 243 731 110 244 732 114 244 733 118 244 734 118 245 735 122 245 736 110 245 737 122 246 738 126 246 739 110 246 740 126 247 741 78 247 742 94 247 743</p>
        </triangles>
      </mesh>
    </geometry>
  </library_geometries>
  <library_visual_scenes>
    <visual_scene id="Scene" name="Scene">
      <node id="tmp_export_Cylinder_001" name="tmp_export_Cylinder.001" type="NODE">
        <matrix sid="transform">1 0 0 0 0 1 0 0 0 0 1 0 0 0 0 1</matrix>
        <instance_geometry url="#Cylinder_001-mesh" name="tmp_export_Cylinder.001">
          <bind_material>
            <technique_common>
              <instance_material symbol="Material_009-material" target="#Material_009-material">
                <bind_vertex_input semantic="UVMap" input_semantic="TEXCOORD" input_set="0"/>
              </instance_material>
            </technique_common>
          </bind_material>
        </instance_geometry>
      </node>
    </visual_scene>
  </library_visual_scenes>
  <scene>
    <instance_visual_scene url="#Scene"/>
  </scene>
</COLLADA>